<?xml version="1.0" encoding="UTF-8"?>
<svg width="168px" height="20px" viewBox="0 0 168 20" version="1.1" xmlns="http://www.w3.org/2000/svg" xmlns:xlink="http://www.w3.org/1999/xlink">
    <!-- Generator: Sketch 55.1 (78136) - https://sketchapp.com -->
    <title>sc-logo-horizontal-20-white</title>
    <desc>Created with Sketch.</desc>
    <g id="Expot-ready" stroke="none" stroke-width="1" fill="none" fill-rule="evenodd">
        <g id="logos-orange" transform="translate(-422.000000, -936.000000)" fill="#FFFFFF" fill-rule="nonzero">
            <path d="M479.394151,951.941778 C477.697136,952.015595 476.078761,951.222591 475.09721,949.836277 L476.682304,948.346671 C477.35992,949.204726 478.401353,949.6945 479.494413,949.669174 C480.797819,949.669174 481.404165,949.291998 481.404165,948.413512 C481.404165,947.668709 481.026989,947.334502 478.954908,946.837967 C476.882828,946.341432 475.517356,945.66347 475.517356,943.381317 C475.517356,941.275816 477.274327,939.986733 479.441895,939.986733 C480.982484,939.961069 482.453099,940.628893 483.447599,941.805772 L481.862505,943.42906 C481.247,942.682328 480.33316,942.245502 479.365505,942.235466 C478.186233,942.235466 477.794734,942.765422 477.794734,943.281055 C477.794734,944.00676 478.272172,944.235931 480.010046,944.670399 C481.74792,945.104867 483.681543,945.730311 483.681543,948.246409 C483.71019,950.452172 482.392461,951.941778 479.394151,951.941778 Z M490.566198,951.941778 C487.70157,951.941778 485.729752,949.721692 485.729752,945.978579 C485.729752,942.235466 487.725442,939.986733 490.599618,939.986733 C493.473794,939.986733 495.421741,942.202045 495.421741,945.945158 C495.421741,949.688271 493.426051,951.941778 490.566198,951.941778 Z M490.566198,942.287984 C489.028848,942.287984 488.007131,943.596164 488.007131,945.945158 C488.007131,948.294153 489.076591,949.640527 490.613941,949.640527 C492.151291,949.640527 493.173009,948.332348 493.173009,945.978579 C493.173009,943.62481 492.093999,942.287984 490.551875,942.287984 L490.566198,942.287984 Z M502.597632,951.941778 C499.943078,951.941778 498.152686,950.032026 498.152686,946.689961 L498.152686,940.16816 L500.353674,940.16816 L500.353674,946.642217 C500.353674,948.494676 501.198739,949.669174 502.597632,949.669174 C503.996525,949.669174 504.860688,948.528097 504.860688,946.675638 L504.860688,940.16816 L507.061677,940.16816 L507.061677,946.642217 C507.061677,950.00338 505.395418,951.941778 502.597632,951.941778 Z M517.402981,951.755577 L513.363857,945.429525 C513.096491,944.999831 512.733639,944.417357 512.595182,944.121345 C512.595182,944.55104 512.623828,946.007225 512.623828,946.651766 L512.623828,951.755577 L510.45626,951.755577 L510.45626,940.16816 L512.561761,940.16816 L516.457654,946.293688 C516.725019,946.723382 517.087872,947.301082 517.226329,947.601868 C517.226329,947.172174 517.197683,945.715988 517.197683,945.066672 L517.197683,940.16816 L519.365251,940.16816 L519.365251,951.755577 L517.402981,951.755577 Z M526.116223,951.755577 L522.836224,951.755577 L522.836224,940.16816 L526.273777,940.16816 C529.415318,940.16816 531.740441,941.724607 531.740441,945.964256 C531.740441,950.036801 528.942655,951.755577 526.116223,951.755577 Z M526.197387,942.412118 L525.032439,942.412118 L525.032439,949.506845 L526.116223,949.506845 C528.427022,949.506845 529.458288,948.074531 529.458288,945.964256 C529.477385,943.596164 528.522509,942.416892 526.197387,942.416892 L526.197387,942.412118 Z M541.284424,943.543646 C540.942433,942.746366 540.14091,942.245652 539.274411,942.287984 C537.622476,942.287984 536.681923,943.811011 536.681923,945.964256 C536.681923,948.117501 537.636799,949.640527 539.288734,949.640527 C540.281805,949.640527 540.859504,949.191736 541.441979,948.165244 L543.294438,949.325418 C542.630222,950.97165 541.000116,952.020122 539.226667,951.941778 C536.36204,951.941778 534.418867,949.62143 534.418867,945.964256 C534.418867,942.43599 536.428881,939.986733 539.307831,939.986733 C541.054908,939.906283 542.664028,940.932528 543.327858,942.550575 L541.284424,943.543646 Z M546.483723,951.755577 L546.483723,940.16816 L548.679937,940.16816 L548.679937,949.473424 L554.194345,949.473424 L554.194345,951.755577 L546.483723,951.755577 Z M560.176641,951.941778 C557.312014,951.941778 555.340195,949.721692 555.340195,945.978579 C555.340195,942.235466 557.335886,939.986733 560.210062,939.986733 C563.084238,939.986733 565.032185,942.202045 565.032185,945.945158 C565.032185,949.688271 563.036494,951.941778 560.176641,951.941778 Z M560.176641,942.287984 C558.639291,942.287984 557.617574,943.596164 557.617574,945.945158 C557.617574,948.294153 558.682261,949.640527 560.224385,949.640527 C561.766509,949.640527 562.783452,948.332348 562.783452,945.978579 C562.783452,943.62481 561.699668,942.287984 560.162318,942.287984 L560.176641,942.287984 Z M572.208076,951.941778 C569.553521,951.941778 567.763129,950.032026 567.763129,946.689961 L567.763129,940.16816 L569.964118,940.16816 L569.964118,946.642217 C569.964118,948.494676 570.809183,949.669174 572.208076,949.669174 C573.606969,949.669174 574.471131,948.528097 574.471131,946.675638 L574.471131,940.16816 L576.686443,940.16816 L576.686443,946.642217 C576.686443,950.00338 575.005862,951.941778 572.208076,951.941778 Z M583.47561,951.827193 L580.195612,951.827193 L580.195612,940.230227 L583.633164,940.230227 C586.774706,940.230227 589.099828,941.791449 589.099828,946.026323 C589.099828,950.103642 586.302042,951.827193 583.47561,951.827193 Z M583.556774,942.483733 L582.415698,942.483733 L582.415698,949.573686 L583.499482,949.573686 C585.810281,949.573686 586.841547,948.141372 586.841547,946.031097 C586.836773,943.639133 585.881897,942.483733 583.556774,942.483733 L583.556774,942.483733 Z M466.589267,950.027252 C466.49378,953.369317 463.595732,955.92361 460.272764,955.92361 L445.075916,955.92361 C444.379026,955.918355 443.817605,955.35053 443.820254,954.653625 L443.820254,938.301378 C443.791237,937.721023 444.126454,937.183914 444.660545,936.955003 C444.660545,936.955003 446.054664,936 448.995681,936 C450.802172,935.993643 452.576377,936.478868 454.128138,937.403794 C456.572356,938.834157 458.304373,941.22434 458.902517,943.992437 C459.426856,943.840499 459.970357,943.764923 460.516257,943.768041 C462.15929,943.7686 463.732098,944.434347 464.876225,945.613554 C466.020353,946.792761 466.638313,948.384952 466.589267,950.027252 Z M441.920052,939.342192 C442.378392,944.885246 442.712598,949.941313 441.920052,955.474818 C441.920052,955.74641 441.699883,955.966579 441.428291,955.966579 C441.156698,955.966579 440.93653,955.74641 440.93653,955.474818 C440.201275,949.993831 440.525933,944.837502 440.93653,939.342192 C440.93653,939.0706 441.156698,938.850431 441.428291,938.850431 C441.699883,938.850431 441.920052,939.0706 441.920052,939.342192 Z M438.8549,941.251944 C439.384856,946.1982 439.542411,950.528562 438.845352,955.493916 C438.810361,955.749253 438.592217,955.939543 438.334493,955.939543 C438.07677,955.939543 437.858625,955.749253 437.823635,955.493916 C437.20774,950.600178 437.346197,946.155231 437.823635,941.251944 C437.823635,940.967168 438.054491,940.736311 438.339267,940.736311 C438.624044,940.736311 438.8549,940.967168 438.8549,941.251944 Z M435.765877,940.774506 C436.267187,945.844896 436.491583,950.394879 435.765877,955.479593 C435.765877,955.752503 435.54464,955.973741 435.271729,955.973741 C434.998819,955.973741 434.777581,955.752503 434.777581,955.479593 C434.070973,950.476044 434.300143,945.787604 434.777581,940.774506 C434.777581,940.501595 434.998819,940.280358 435.271729,940.280358 C435.54464,940.280358 435.765877,940.501595 435.765877,940.774506 Z M432.7055,942.20682 C433.309462,946.61879 433.304643,951.092805 432.691177,955.503465 C432.665906,955.762722 432.447967,955.960452 432.18748,955.960452 C431.926994,955.960452 431.709054,955.762722 431.683783,955.503465 C431.115649,951.089456 431.115649,946.620828 431.683783,942.20682 C431.683783,941.92468 431.912503,941.695961 432.194642,941.695961 C432.476781,941.695961 432.7055,941.92468 432.7055,942.20682 L432.7055,942.20682 Z M429.602154,945.496367 C430.385152,948.96734 430.027074,952.008619 429.549636,955.522562 C429.549636,955.786244 429.33588,956 429.072198,956 C428.808516,956 428.59476,955.786244 428.59476,955.522562 C428.203261,952.065912 427.854732,948.919596 428.59476,945.496367 C428.620031,945.237109 428.837971,945.03938 429.098457,945.03938 C429.358943,945.03938 429.576883,945.237109 429.602154,945.496367 Z M426.527454,944.990282 C427.248385,948.518548 427.009666,951.516858 426.508357,955.059447 C426.460613,955.579855 425.553481,955.584629 425.505737,955.059447 C425.052171,951.564602 424.861196,948.470805 425.48664,944.990282 C425.521988,944.729926 425.744302,944.535755 426.007047,944.535755 C426.269792,944.535755 426.492106,944.729926 426.527454,944.990282 Z M423.428882,946.685187 C424.173685,949.04373 423.90632,950.948707 423.381139,953.331122 C423.381139,953.594804 423.167382,953.80856 422.903701,953.80856 C422.640019,953.80856 422.426263,953.594804 422.426263,953.331122 C421.977471,950.982128 421.767398,949.029407 422.383293,946.685187 C422.409072,946.415742 422.635413,946.210022 422.906088,946.210022 C423.176763,946.210022 423.403104,946.415742 423.428882,946.685187 Z" id="sc-logo-horizontal-20-white"></path>
        </g>
    </g>
</svg>